<?xml version="1.0" encoding="utf-8"?>
<svg id="master-artboard" viewBox="0 0 1400 980" version="1.1" xmlns="http://www.w3.org/2000/svg" x="0px" y="0px" enable-background="new 0 0 1400 980" width="1400px" height="980px" xmlns:xlink="http://www.w3.org/1999/xlink"><rect id="ee-background" x="0" y="0" width="1400" height="980" style="fill: white; fill-opacity: 0; pointer-events: none;"/>
<path d="M 789.5 601 H 929.399994 V 798.100006 H 789.5 V 601 Z" fill="#240E0B" transform="matrix(1, 0, 0, 1, -159.11308542851162, -425.41815559679594)"/><path fill="#2E3192" d="M948.7,789.1c-11.2-1.3-20.1-2.7-32.9-3.9c0,0,0,0.1-0.1,0.2c-0.5-0.1-1-0.3-1.5-0.3&#10;&#9;&#9;&#9;&#9;c-41.6-7-31.2-46-31.2-46l-23.8-2.3l-23.8,2.3c0,0,10.6,39.7-32.4,46.2c0,0,0,0,0,0c-12.8,1.2-21.7,2.5-32.9,3.9&#10;&#9;&#9;&#9;&#9;c-20.3,2.4-35.5,19.5-35.5,40l-3.9,49.1h128.7h128.7l-3.9-49.1C984.3,808.7,969,791.5,948.7,789.1z" transform="matrix(1, 0, 0, 1, -159.11308542851162, -425.41815559679594)"/><path fill="#26336E" d="M892.1,775.7c-21.5,5.6-43.8,5.6-65.3,0c-2.8-0.7-4.5-3.5-3.9-6c1.2-4.8,2.4-9.6,3.6-14.4&#10;&#9;&#9;&#9;&#9;c0.6-2.5,3-4,5.4-3.4c18.1,4.7,37,4.7,55.2,0c2.3-0.6,4.7,0.9,5.4,3.4c1.2,4.8,2.4,9.6,3.6,14.4&#10;&#9;&#9;&#9;&#9;C896.6,772.2,894.9,775,892.1,775.7z" transform="matrix(1, 0, 0, 1, -159.11308542851162, -425.41815559679594)"/><path fill="#E69973" d="M794.7,673.1c0,0-15.6-10.2-16.3,4.8c-0.7,14.9,19.7,40.8,31.3,33.3C821.2,703.7,794.7,673.1,794.7,673.1&#10;&#9;&#9;&#9;&#9;z" transform="matrix(1, 0, 0, 1, -159.11308542851162, -425.41815559679594)"/><path fill="#E69973" d="M923.8,673.1c0,0,15.6-10.2,16.3,4.8c0.7,14.9-19.7,40.8-31.3,33.3C897.3,703.7,923.8,673.1,923.8,673.1z&#10;&#9;&#9;&#9;&#9;" transform="matrix(1, 0, 0, 1, -159.11308542851162, -425.41815559679594)"/><path fill="#FBB88D" d="M905.9,601.5c-26.4-23.7-67-23.7-93.4,0c-15.7,14.2-28.8,38-20.6,77c11.3,54.1,40.8,78.1,56.7,87.3&#10;&#9;&#9;&#9;&#9;c6.7,3.9,15,4,21.8,0.3c15.5-8.6,43-31.3,56-87.6C935.5,639.7,921.7,615.7,905.9,601.5z" transform="matrix(1, 0, 0, 1, -159.11308542851162, -425.41815559679594)"/><path fill="#7C141E" d="M859.3,725.2l-20.1,1.4c0,0,3.8,1.8,5.2,3.3s11.6,8.6,15,8.5c3.4,0.1,13.6-6.9,15-8.5s5.2-3.3,5.2-3.3&#10;&#9;&#9;&#9;&#9;&#9;L859.3,725.2z" transform="matrix(1, 0, 0, 1, -159.11308542851162, -425.41815559679594)"/><path fill="#FFFFFF" d="M859.3,726.6l-13.3,0.5c0,0,1.9,4.1,13.3,4.6c11.4-0.4,13.3-4.6,13.3-4.6L859.3,726.6z" transform="matrix(1, 0, 0, 1, -159.11308542851162, -425.41815559679594)"/><path fill="#BF2433" d="M870.7,723.9c-3.2-2-7.5-3.8-11.4-1.1c-3.9-2.7-8.2-0.9-11.4,1.1c-3.2,2-8.7,2.7-8.7,2.7&#10;&#9;&#9;&#9;&#9;&#9;s6.5,1.8,11.9,1.7c5.4-0.2,8.2,0.8,8.2,0.8s2.9-0.9,8.2-0.8c5.4,0.2,11.9-1.7,11.9-1.7S873.8,725.8,870.7,723.9z" transform="matrix(1, 0, 0, 1, -159.11308542851162, -425.41815559679594)"/><path fill="#BF2433" d="M868.1,732.7c-3.5,2.1-8.9,2.2-8.9,2.2s-5.4-0.1-8.9-2.2c-3.5-2.1-5.2-4.6-11.2-6.1c0,0,4.2,3.6,5.9,6.8&#10;&#9;&#9;&#9;&#9;&#9;c1.7,3.2,4.2,9.7,14.3,9.7c10.1,0,12.6-6.5,14.3-9.7c1.7-3.2,5.9-6.8,5.9-6.8C873.3,728.1,871.7,730.6,868.1,732.7z" transform="matrix(1, 0, 0, 1, -159.11308542851162, -425.41815559679594)"/><g transform="matrix(1, 0, 0, 1, -159.11308542851162, -425.41815559679594)">
					<path fill="#5F240E" d="M802.8,663.9c0,0,4.8-8.8,15.1-7.8c10.2,1,13.5,3.8,21.8,1.7c0,0,1.1,2.8-2.9,4.4s-15.6-3.8-22.8-3.2&#10;&#9;&#9;&#9;&#9;&#9;&#9;C806.8,659.6,802.8,663.9,802.8,663.9z"/>
					<path fill="#FFFFFF" d="M806.7,676.7c0,0,24.3-13.2,35.4,7.1c0,0-1,1.9-3.3,3.6C838.7,687.5,819.7,695.1,806.7,676.7z"/>
					<path fill="#1E0E0C" d="M821.4,671.6c-1.5,1.6-2.3,3.7-2.2,6.1c0.2,4.6,4.1,8.1,8.7,7.9c4.6-0.2,8.1-4.1,7.9-8.7&#10;&#9;&#9;&#9;&#9;&#9;&#9;c0-0.2,0-0.4-0.1-0.6C831,672.9,824.5,671.9,821.4,671.6z"/>
				</g><path d="M 832.300024 678.200012 A 1.9 1.9 0 0 1 830.400024 680.100012 A 1.9 1.9 0 0 1 828.500024 678.200012 A 1.9 1.9 0 0 1 830.400024 676.300012 A 1.9 1.9 0 0 1 832.300024 678.200012 Z" fill="#FFF2E4" transform="matrix(1, 0, 0, 1, -159.11308542851162, -425.41815559679594)"/><g transform="matrix(1, 0, 0, 1, -159.11308542851162, -425.41815559679594)">
					<path fill="#5F240E" d="M914.6,661.8c0,0-5.8-8.2-15.8-6.1s-13,5.2-21.5,4.1c0,0-0.8,2.9,3.4,4c4.1,1.1,15.1-5.5,22.4-5.6&#10;&#9;&#9;&#9;&#9;&#9;&#9;C910.1,658,914.6,661.8,914.6,661.8z"/>
					<path fill="#FFFFFF" d="M912.2,674.9c0,0-25.6-10.5-34.4,11c0,0,1.1,1.7,3.7,3.2C881.5,689.1,901.3,694.6,912.2,674.9z"/>
					<path fill="#1E0E0C" d="M897,671.4c1.6,1.4,2.7,3.5,2.9,5.8c0.3,4.6-3.2,8.5-7.8,8.8c-4.6,0.3-8.5-3.2-8.8-7.8&#10;&#9;&#9;&#9;&#9;&#9;&#9;c0-0.2,0-0.4,0-0.6C887.6,673.8,893.9,672.1,897,671.4z"/>
				</g><path d="M 897.4 678.599976 A 1.9 1.9 0 0 1 895.5 680.499976 A 1.9 1.9 0 0 1 893.6 678.599976 A 1.9 1.9 0 0 1 895.5 676.699976 A 1.9 1.9 0 0 1 897.4 678.599976 Z" fill="#FFF2E4" transform="matrix(1, 0, 0, 1, -159.11308542851162, -425.41815559679594)"/><path fill="#E08559" d="M870.3,667.4c0,0-10.3,11.6-6.1,23.7s10.8,17.8-1,24.1c0,0,4.9-5,1.5-14.7&#10;&#9;&#9;&#9;&#9;C861.4,690.8,857.5,679.5,870.3,667.4z" transform="matrix(1, 0, 0, 1, -159.11308542851162, -425.41815559679594)"/><path fill="#37140E" d="M812.9,672.4L812.9,672.4c-3.6,0.6-5.2-2.6-5.2-2.6c0.7,2.8,2.4,3.9,2.4,3.9c-3.9,0.5-5.4-3.9-5.4-3.9&#10;&#9;&#9;&#9;&#9;c0.4,3.7,3,5.2,3,5.2c-4.9,0.2-6-4.6-6-4.6c0,4,3.4,6.1,3.4,6.1s13.6,19.5,33.4,11c0,0-19.5,6-30.5-10.4c0,0,20.5-14.1,33,6.2&#10;&#9;&#9;&#9;&#9;c0,0-0.6,2.1-1.8,3.7c0,0,2.7-1.2,3.6-3.4C843,683.6,833.6,664.2,812.9,672.4z" transform="matrix(1, 0, 0, 1, -159.11308542851162, -425.41815559679594)"/><path fill="#37140E" d="M916.2,668c0,0-0.1,4.7-5,5.1c0,0,2.1-1.6,2-5.3c0,0-0.6,4.4-4.5,4.4c0,0,1.2-1.2,1.6-4&#10;&#9;&#9;&#9;&#9;c0,0-1.1,3-4.3,3.2c-21.8-6.3-29.1,14.3-29.1,14.3c1.2,2.1,3.9,3,3.9,3c-1.4-1.5-2.2-3.5-2.2-3.5c10.2-21.5,32.1-9.7,32.1-9.7&#10;&#9;&#9;&#9;&#9;c-9.2,17.5-29.2,13.6-29.2,13.6c20.2,6.2,31.6-13.9,32-14.6C913.7,674.4,916.6,671.9,916.2,668z" transform="matrix(1, 0, 0, 1, -159.11308542851162, -425.41815559679594)"/><path fill="#5D1A10" d="M929.4,585.8c-13.8-16.8-26.7-38.7-70.1-31.8c-36.7-6.8-58.4,15-72.2,31.8c-15.1,18.4-19.3,44.2-19.3,67.9&#10;&#9;&#9;&#9;v144.6c6,66.3,51.4,70.8,51.4,70.8c-15.6-9.2-17.3-35-17.3-35V670.3c11.7-53.1,57.4-65,57.4-65s11.1,34.3,57.4,50V834&#10;&#9;&#9;&#9;c0,0-1.7,25.8-17.3,35c0,0,45.4-4.5,51.4-70.8V653.7C950.7,629.9,944.4,604.1,929.4,585.8z" transform="matrix(1, 0, 0, 1, -159.11308542851162, -425.41815559679594)"/><path fill="#77241D" d="M861.4,580.7c0,0,6.7,61.2,70.8,68.5C932.3,649.3,878.2,635.3,861.4,580.7z" transform="matrix(1, 0, 0, 1, -159.11308542851162, -425.41815559679594)"/><path fill="#77241D" d="M870.3,561.4c0,0,57.2,9,74.1,75.2C944.4,636.6,925,584.9,870.3,561.4z" transform="matrix(1, 0, 0, 1, -159.11308542851162, -425.41815559679594)"/><path fill="#77241D" d="M872.5,580.7c0,0,19,42.1,52.1,51C924.7,631.8,885.9,603.5,872.5,580.7z" transform="matrix(1, 0, 0, 1, -159.11308542851162, -425.41815559679594)"/><path fill="#77241D" d="M783.1,664.8c0,0-3.4,105.6,0,153.2C783.1,818,773.4,728.6,783.1,664.8z" transform="matrix(1, 0, 0, 1, -159.11308542851162, -425.41815559679594)"/><path fill="#77241D" d="M791,664.8c0,0-3.4,116.6,0,169.1C791,833.9,781.2,735.2,791,664.8z" transform="matrix(1, 0, 0, 1, -159.11308542851162, -425.41815559679594)"/><path fill="#77241D" d="M846,588.7c0,0-58.4,21.1-51.3,100.9C794.7,689.6,776.8,608.5,846,588.7z" transform="matrix(1, 0, 0, 1, -159.11308542851162, -425.41815559679594)"/><path fill="#77241D" d="M849.5,561.4c0,0-79.4,12-71.1,108.3C778.4,669.7,774.8,586.8,849.5,561.4z" transform="matrix(1, 0, 0, 1, -159.11308542851162, -425.41815559679594)"/>
<g id="XMLID_629_" transform="matrix(1, 0, 0, 1, 487.41081931726455, -7.245062382249159)">
	<g id="XMLID_369_">
		<path id="XMLID_479_" fill="#E4B69D" d="M891.7,462.5H514.9c14.7-67.9,26.6-81.3,26.6-81.3l122.7-37.3h78l0.1,0l122.6,37.3&#10;&#9;&#9;&#9;C865.1,381.2,877.1,394.5,891.7,462.5z"/>
		<g id="XMLID_476_">
			<path d="M 747.5999755859375 352.8999938964844 L 652.0999755859375 352.8999938964844 L 656.5999755859375 285.29998779296875 L 680 285 L 740.4000244140625 284.20001220703125 Z" id="XMLID_478_" fill="#E4B69D"/>
			<path id="XMLID_477_" fill="#BC907E" d="M747.6,352.9h-11l-4.4-45c0,0-10.5,15.7-29.9,15.5c-26.6-0.1-45.6-30.9-45.6-30.9&#10;&#9;&#9;&#9;&#9;L680,285l60.5-0.8L747.6,352.9z"/>
		</g>
		<path id="XMLID_475_" fill="#F5C5B0" d="M659.7,291.6l-2.9,63.4l-107.2,32.6c-14.7,24.6-23.5,74.8-23.5,74.8h-11.1&#10;&#9;&#9;&#9;c14.7-67.9,26.6-81.3,26.6-81.3l110.9-33.7l3.8-57.9L659.7,291.6z"/>
		<g id="XMLID_400_">
			<g id="XMLID_440_">
				<path id="XMLID_474_" fill="#F5C5B0" d="M645.2,219c4.4,16.5,6,32.1-3,34.5c-9,2.4-25.1-9.2-29.6-25.7s-0.7-31.8,8.2-34.3&#10;&#9;&#9;&#9;&#9;&#9;C629.9,191.1,640.7,202.5,645.2,219z"/>
				<path id="XMLID_473_" fill="#E4B69D" d="M628.3,206.2c0,0-2.7-5.4-5.8-5.3c-3.2,0.1-9.4,11.3-3.9,25.3&#10;&#9;&#9;&#9;&#9;&#9;c5.6,14,13.8,19.7,20.9,21.2C639.5,247.3,631.4,207.5,628.3,206.2z"/>
				<path id="XMLID_472_" fill="#CEA28B" d="M631.6,221.6c0,0-6.4,1.2-7.1,4.1s-0.1,3.7,3.9,3.5c4-0.2,6.3,3.7,2.6,5.3&#10;&#9;&#9;&#9;&#9;&#9;s-1.5,9.7,6.8,7.4C646.1,239.6,637.2,222.5,631.6,221.6z"/>
				<path id="XMLID_461_" fill="#CEA28B" d="M631.6,211.8c0,0-5.2-12.2-10.1-10.8c-4.9,1.4-6.1,12.1-4.6,19.4c0,0,0.1-15.4,5.1-16.8&#10;&#9;&#9;&#9;&#9;&#9;s7.5,12.2,7.5,12.2s-2.4-1.9-6.4-1.6c0,0,8.4,5.7,9.5,11.7C632.6,226,636.1,227.8,631.6,211.8z"/>
				<path id="XMLID_441_" fill="#CEA28B" d="M638.7,245.8c0,0-3.4,0.2-7.9-2.5c0,0,5.5,3.9,8.8,4.7L638.7,245.8z"/>
			</g>
			<g id="XMLID_430_">
				<path id="XMLID_439_" fill="#DBAB95" d="M749.5,218.4c-5,16.3-7.2,31.8,1.7,34.6c8.9,2.8,25.5-8.3,30.5-24.6s1.9-31.8-7-34.5&#10;&#9;&#9;&#9;&#9;&#9;C765.9,191.1,754.6,202.1,749.5,218.4z"/>
				<path id="XMLID_434_" fill="#CC9C89" d="M766.9,206.2c0,0,2.9-5.3,6-5.1c3.2,0.2,9,11.6,2.9,25.4c-6.1,13.8-14.5,19.2-21.6,20.4&#10;&#9;&#9;&#9;&#9;&#9;C754.2,246.9,763.7,207.4,766.9,206.2z"/>
				<path id="XMLID_433_" fill="#BC8D7E" d="M763,221.5c0,0,6.3,1.5,6.9,4.4c0.6,2.9-0.1,3.7-4,3.4c-4-0.4-6.4,3.4-2.8,5.2&#10;&#9;&#9;&#9;&#9;&#9;c3.6,1.8,1.2,9.7-7,7.1C747.9,239,757.4,222.2,763,221.5z"/>
				<path id="XMLID_432_" fill="#BC8D7E" d="M763.4,211.7c0,0,5.7-12,10.5-10.4s5.6,12.3,3.9,19.6c0,0,0.5-15.4-4.5-17&#10;&#9;&#9;&#9;&#9;&#9;s-8,11.9-8,11.9s2.5-1.8,6.5-1.4c0,0-8.6,5.4-9.9,11.4C761.9,225.9,758.3,227.5,763.4,211.7z"/>
				<path id="XMLID_431_" fill="#BC8D7E" d="M755.1,245.4c0,0,3.4,0.4,8-2.2c0,0-5.6,3.7-9,4.3L755.1,245.4z"/>
			</g>
			<path id="XMLID_429_" fill="#E4B69D" d="M767.6,187.7l-20.1,91.9l-29.1,31.8c-6.5,1.2-12.3,1.8-17.3,2h0c-13.7,0.5-21.4-2-21.4-2&#10;&#9;&#9;&#9;&#9;l-33.3-31.8l-20.3-88.1c0,0-2.3-14.9,2.2-31.5c5.6-21,22.2-44.8,68-44.8c32.2,0,50.2,11.2,60.1,24.8&#10;&#9;&#9;&#9;&#9;C771.5,161,767.6,187.7,767.6,187.7z"/>
			<g id="XMLID_418_">
				<path id="XMLID_427_" fill="#F5E0CD" d="M683.4,207.8c0,0-14-9.6-34.4-1.6c0,0,1.6,7.4,3.7,9.6c0,0,12.1,4,29.3,0&#10;&#9;&#9;&#9;&#9;&#9;C682.1,215.8,683.4,212.5,683.4,207.8z"/>
				<g id="XMLID_420_">
					<defs>
						<path id="XMLID_421_" d="M683.4,207.8c0,0-14-9.6-34.4-1.6c0,0,1.6,7.4,3.7,9.6c0,0,12.1,4,29.3,0&#10;&#9;&#9;&#9;&#9;&#9;&#9;&#9;C682.1,215.8,683.4,212.5,683.4,207.8z"/>
					</defs>
					<clipPath id="XMLID_8_">
						<use overflow="visible" xlink:href="#XMLID_421_"/>
					</clipPath>
					<g id="XMLID_422_" clip-path="url(#XMLID_8_)">
						<path d="M 675.699987 208.300003 A 8.4 8.4 0 0 1 667.299988 216.700003 A 8.4 8.4 0 0 1 658.899988 208.300003 A 8.4 8.4 0 0 1 667.299988 199.900003 A 8.4 8.4 0 0 1 675.699987 208.300003 Z" id="XMLID_426_" fill="#603913"/>
						<path d="M 672.499988 208.300003 A 5.2 5.2 0 0 1 667.299988 213.500003 A 5.2 5.2 0 0 1 662.099988 208.300003 A 5.2 5.2 0 0 1 667.299988 203.100003 A 5.2 5.2 0 0 1 672.499988 208.300003 Z" id="XMLID_425_" fill="#19120E"/>
						
							<path d="M 673.899976 204.100006 A 3.8 2.3 0 0 1 670.099976 206.400006 A 3.8 2.3 0 0 1 666.299976 204.100006 A 3.8 2.3 0 0 1 670.099976 201.800006 A 3.8 2.3 0 0 1 673.899976 204.100006 Z" id="XMLID_424_" transform="matrix(-0.8109 -0.5852 0.5852 -0.8109 1094.1174 761.8027)" opacity="0.21" fill="#FFFFFF"/>
						
							<path d="M 666.999976 212.5 A 2.9 1.8 0 0 1 664.099976 214.3 A 2.9 1.8 0 0 1 661.199975 212.5 A 2.9 1.8 0 0 1 664.099976 210.7 A 2.9 1.8 0 0 1 666.999976 212.5 Z" id="XMLID_423_" transform="matrix(-0.8109 -0.5852 0.5852 -0.8109 1078.2926 773.418)" opacity="0.21" fill="#FFFFFF"/>
					</g>
				</g>
				<path id="XMLID_419_" fill="#4A0F00" d="M683.4,207.8c0,0-14.3-8.1-34.4-1.6C649,206.2,663.3,195.6,683.4,207.8z"/>
			</g>
			<g id="XMLID_407_">
				<path id="XMLID_416_" fill="#F5E0CD" d="M717.2,207.8c0,0,14-9.6,34.4-1.6c0,0-1.6,7.4-3.7,9.6c0,0-12.1,4-29.3,0&#10;&#9;&#9;&#9;&#9;&#9;C718.6,215.8,717.2,212.5,717.2,207.8z"/>
				<g id="XMLID_409_">
					<defs>
						<path id="XMLID_410_" d="M717.2,207.8c0,0,14-9.6,34.4-1.6c0,0-1.6,7.4-3.7,9.6c0,0-12.1,4-29.3,0&#10;&#9;&#9;&#9;&#9;&#9;&#9;&#9;C718.6,215.8,717.2,212.5,717.2,207.8z"/>
					</defs>
					<clipPath id="XMLID_9_">
						<use overflow="visible" xlink:href="#XMLID_410_"/>
					</clipPath>
					<g id="XMLID_411_" clip-path="url(#XMLID_9_)">
						<path d="M 740.499975 208.300003 A 8.4 8.4 0 0 1 732.099976 216.700003 A 8.4 8.4 0 0 1 723.699976 208.300003 A 8.4 8.4 0 0 1 732.099976 199.900003 A 8.4 8.4 0 0 1 740.499975 208.300003 Z" id="XMLID_415_" fill="#603913"/>
						<path d="M 737.299975 208.300003 A 5.2 5.2 0 0 1 732.099976 213.500003 A 5.2 5.2 0 0 1 726.899976 208.300003 A 5.2 5.2 0 0 1 732.099976 203.100003 A 5.2 5.2 0 0 1 737.299975 208.300003 Z" id="XMLID_414_" fill="#19120E"/>
						
							<path d="M 738.700024 204.100006 A 3.8 2.3 0 0 1 734.900024 206.400006 A 3.8 2.3 0 0 1 731.100024 204.100006 A 3.8 2.3 0 0 1 734.900024 201.800006 A 3.8 2.3 0 0 1 738.700024 204.100006 Z" id="XMLID_413_" transform="matrix(-0.8109 -0.5852 0.5852 -0.8109 1211.4532 799.7176)" opacity="0.21" fill="#FFFFFF"/>
						
							<path d="M 731.800025 212.5 A 2.9 1.8 0 0 1 728.900024 214.3 A 2.9 1.8 0 0 1 726.000024 212.5 A 2.9 1.8 0 0 1 728.900024 210.7 A 2.9 1.8 0 0 1 731.800025 212.5 Z" id="XMLID_412_" transform="matrix(-0.8109 -0.5852 0.5852 -0.8109 1195.6284 811.3328)" opacity="0.21" fill="#FFFFFF"/>
					</g>
				</g>
				<path id="XMLID_408_" fill="#4A0F00" d="M717.2,207.8c0,0,14.3-8.1,34.4-1.6C751.6,206.2,737.4,195.6,717.2,207.8z"/>
			</g>
			<path id="XMLID_406_" fill="#CEA28B" d="M679.7,270c0,0,18.3,5.8,41.9-1.3C721.6,268.6,701.2,270,679.7,270z"/>
			<path id="XMLID_405_" fill="#CEA28B" d="M691.4,279.5c0,0,6.9,2.4,18,0c0,0-1.4,5.5-9.3,5.8C692.1,285.5,691.4,279.5,691.4,279.5&#10;&#9;&#9;&#9;&#9;z"/>
			<path id="XMLID_404_" fill="#CEA28B" d="M711.2,200.5l-4.5,9.7l5.8,43l-24.8,1.3l12.2,4.2l17.1-4.2l-7-44.3&#10;&#9;&#9;&#9;&#9;C710.1,210.2,709.9,205.2,711.2,200.5z"/>
			<path d="M 694.0999755859375 212.3000030517578 L 692 245.89999389648438 L 687.7000122070312 241 Z" id="XMLID_403_" fill="#F5C5B0"/>
			<path id="XMLID_402_" fill="#F5C5B0" d="M701,313.3c-13.7,0.5-21.4-2-21.4-2l-33.3-31.8l-20.3-88.1c0,0-2.3-14.9,2.2-31.5&#10;&#9;&#9;&#9;&#9;c2,12.8,13.3,84.4,23.1,119.6l28.3,28.1C679.7,307.6,689.1,312.5,701,313.3z"/>
			<path id="XMLID_401_" fill="#CC9C89" d="M767.6,187.7l-20.1,91.9l-29.1,31.8c-6.5,1.2-12.3,1.8-17.3,2l16-4.7l27.7-31.3L763,186&#10;&#9;&#9;&#9;&#9;c0,0,2.7-27.1-6.8-46C771.5,161,767.6,187.7,767.6,187.7z"/>
			<path id="XMLID_367_" fill="#4A0F00" d="M685.5,193.2c0,0-28-4.7-45.5,1.8c0,0,13.5-13.6,46.6-7.4L685.5,193.2z"/>
			<path id="XMLID_380_" fill="#4A0F00" d="M713.4,193.2c0,0,28-4.7,45.5,1.8c0,0-13.5-13.6-46.6-7.4L713.4,193.2z"/>
		</g>
		<path d="M 612.5 381.20001220703125 L 691.7999877929688 388.79998779296875 L 682.2000122070312 394.1000061035156 Z" id="XMLID_379_" fill="#CC9C89"/>
		<path d="M 784.2000122070312 381.20001220703125 L 704.9000244140625 388.79998779296875 L 714.4000244140625 394.1000061035156 Z" id="XMLID_378_" fill="#CC9C89"/>
		<path id="XMLID_376_" fill="#BC907E" d="M891.7,462.5h-15.2c-0.3-35.6-19.2-74.8-19.2-74.8l-120.6-34.7l5.8-9l122.6,37.3&#10;&#9;&#9;&#9;C865.1,381.2,877.1,394.5,891.7,462.5z"/>
		<path d="M 700.5999755859375 425.20001220703125 L 699.9000244140625 462.5 L 704.9000244140625 462.5 Z" id="XMLID_375_" fill="#CC9C89"/>
		<g id="XMLID_368_">
			<path id="XMLID_398_" fill="#4A0F00" d="M777.3,195c-3-2.3-10.9,0-10.9,0c-7.9-8.7-1.3-12.3-6.6-41.6c-5.5-30.2-41-5.8-61.3-5.8&#10;&#9;&#9;&#9;&#9;s-61.5-20.5-61.5,12.4c0,32.9-9.2,33.6-9.2,33.6c-0.9-0.2-1.7-0.3-2.5-0.3c-4-0.1-5.8,1.7-5.8,1.7c-8.4-43.7-1.2-55.3-3.3-70.5&#10;&#9;&#9;&#9;&#9;s-9.6-24.4-9.6-24.4c11.6,4.3,13.4,15.2,13.4,15.2c1.8-20.2-17.4-25.1-17.4-25.1c22.8-1.8,26.2,11.3,26.2,11.3&#10;&#9;&#9;&#9;&#9;c3-23-12.6-36.4-12.6-36.4c12.1,0.8,19.4,13.9,22.2,20.3c-3.5-12.5,6.3-28.4,6.3-28.4c3.3,21.9,14.9,25.5,14.9,25.5&#10;&#9;&#9;&#9;&#9;c-11.6-8.1-9.1-25.5-9.1-25.5c2.9,17,37.7,23,37.7,23c-5.6-4.1-8.5-12.2-8.7-12.7c8.7,9.9,18.1,8.5,51.1,15.9&#10;&#9;&#9;&#9;&#9;c11.3,2.5,18.9,6.4,24,10.3c9.9,7.6,10.6,15.5,10.6,15.5C787.5,139.8,777.3,195,777.3,195z"/>
			<g id="XMLID_364_">
				<path id="XMLID_366_" fill="#3B0200" d="M701.1,77.3C701.1,77.3,701.1,77.3,701.1,77.3c-4.4-0.9-8-1.7-11-2.9&#10;&#9;&#9;&#9;&#9;&#9;C689.6,75.3,692.7,76.3,701.1,77.3z"/>
			</g>
			<path id="XMLID_360_" fill="#5E150C" d="M679.5,67.3c0,0,2.9,8.5,8.7,12.7c0,0-34.8-6-37.7-23c0,0-2.5,17.3,9.1,25.5&#10;&#9;&#9;&#9;&#9;c0,0-11.6-3.5-14.9-25.5c0,0-9.9,16.1-6.2,28.6c-2.7-6.3-9.9-19.7-22.3-20.5c0,0,15.6,13.4,12.6,36.4c0,0-3.4-13.1-26.2-11.3&#10;&#9;&#9;&#9;&#9;c0,0,19.2,5,17.4,25.1c0,0-1.8-10.9-13.4-15.2c0,0,7.6,9.2,9.6,24.4c2,14.8-4.8,26.1,2.6,67c0-0.2-0.2-35.2,4.5-46.2&#10;&#9;&#9;&#9;&#9;c4.7-11,0-25.5,0-25.5l5.5,6c0,0-0.8-9.9-2.1-16.3c-1.3-6.4,8.9,4.6,8.9,4.6l-2.5-31.8l6.6,13.4l3.9-28.7c0,0,3.1,17,22.8,23.7&#10;&#9;&#9;&#9;&#9;c0,0-13.9-21.1-13-23.7c0,0,4.6,13.4,39.3,16.3c0,0-4-4.6-6.1-10.6C683.9,71.5,681.7,69.8,679.5,67.3z"/>
			<path id="XMLID_386_" fill="#2F120C" d="M777.3,195c-3-2.3-10.9,0-10.9,0c-7.9-8.7-1.3-12.3-6.6-41.6c-5.5-30.2-41-5.8-61.3-5.8&#10;&#9;&#9;&#9;&#9;s-61.5-20.5-61.5,12.4c0,32.9-9.2,33.6-9.2,33.6c-0.9-0.2-1.7-0.3-2.5-0.3c2.4-4.5,8.1-17.6,5.6-34.7&#10;&#9;&#9;&#9;&#9;c-3.2-21.3,18.8-39.6,64.8-23c37.3,13.5,62.3-23.3,59.1-42.2c9.9,7.6,10.6,15.5,10.6,15.5C787.5,139.8,777.3,195,777.3,195z"/>
		</g>
	</g>
	<path id="XMLID_625_" fill="#773748" d="M897.1,463.5H512.6c0,0,10.2-56.6,28.9-84.6l86.2-25.7l13.5-4c0,0,43.3,65.7,59.2,66.6&#10;&#9;&#9;c21,1.2,62.9-66.6,62.9-66.6l11.6,3.4l94.3,27.7C869.2,380.2,890,413.5,897.1,463.5z"/>
	<path id="XMLID_547_" fill="#632E3E" d="M897.8,463.5h-12c0,0-8.4-47.3-24.4-74.8l-102.8-31.1c3.4-5.1,5.4-8.4,5.4-8.4l11.6,3.4&#10;&#9;&#9;l94.3,27.7C869.8,380.2,890.7,413.5,897.8,463.5z"/>
	<path id="XMLID_555_" fill="#632E3E" d="M774.9,352.5c-37.5,76.5-72.6,77-72.6,77c-27,0-65.3-59.9-74.5-76.3l13.5-4&#10;&#9;&#9;c0,0,43.3,65.7,59.2,66.6c21,1.2,62.9-66.6,62.9-66.6L774.9,352.5z"/>
</g><g id="XMLID_628_" transform="matrix(1, 0, 0, 1, 484.3349242831082, 2.483377456936555)">
	<g id="XMLID_510_">
		<path id="XMLID_616_" fill="#E4B69D" d="M886,894.8H509.3c14.7-67.9,26.6-81.3,26.6-81.3l122.7-37.3h78l0.1,0l122.6,37.3&#10;&#9;&#9;&#9;C859.4,813.6,871.4,826.9,886,894.8z"/>
		<g id="XMLID_612_">
			<path d="M 742 785.2999877929688 L 646.5 785.2999877929688 L 650.9000244140625 717.7000122070312 L 674.2999877929688 717.2999877929688 L 734.7000122070312 716.5 Z" id="XMLID_615_" fill="#E4B69D"/>
			<path id="XMLID_613_" fill="#BC907E" d="M742,785.3h-11l-4.4-45c0,0-10.5,15.7-29.9,15.5c-26.6-0.1-45.6-30.9-45.6-30.9l23.2-7.6&#10;&#9;&#9;&#9;&#9;l60.5-0.8L742,785.3z"/>
		</g>
		<path id="XMLID_611_" fill="#F5C5B0" d="M654,724l-2.9,63.4L543.9,820c-14.7,24.6-23.5,74.8-23.5,74.8h-11.1&#10;&#9;&#9;&#9;c14.7-67.9,26.6-81.3,26.6-81.3l110.9-33.7l3.8-57.9L654,724z"/>
		<g id="XMLID_558_">
			<g id="XMLID_604_">
				<path id="XMLID_610_" fill="#F5C5B0" d="M639.5,651.4c4.4,16.5,6,32.1-3,34.5c-9,2.4-25.1-9.2-29.6-25.7&#10;&#9;&#9;&#9;&#9;&#9;c-4.4-16.5-0.7-31.8,8.2-34.3C624.2,623.5,635.1,634.9,639.5,651.4z"/>
				<path id="XMLID_609_" fill="#E4B69D" d="M622.6,638.5c0,0-2.7-5.4-5.8-5.3s-9.4,11.3-3.9,25.3c5.6,14,13.8,19.7,20.9,21.2&#10;&#9;&#9;&#9;&#9;&#9;C633.8,679.7,625.7,639.9,622.6,638.5z"/>
				<path id="XMLID_607_" fill="#CEA28B" d="M625.9,654c0,0-6.4,1.2-7.1,4.1c-0.7,2.9-0.1,3.7,3.9,3.5c4-0.2,6.3,3.7,2.6,5.3&#10;&#9;&#9;&#9;&#9;&#9;s-1.5,9.7,6.8,7.4S631.5,654.9,625.9,654z"/>
				<path id="XMLID_606_" fill="#CEA28B" d="M625.9,644.2c0,0-5.2-12.2-10.1-10.8c-4.9,1.4-6.1,12.1-4.6,19.4c0,0,0.1-15.4,5.1-16.8&#10;&#9;&#9;&#9;&#9;&#9;c5-1.4,7.5,12.2,7.5,12.2s-2.4-1.9-6.4-1.6c0,0,8.4,5.7,9.5,11.7C626.9,658.3,630.5,660.1,625.9,644.2z"/>
				<path id="XMLID_605_" fill="#CEA28B" d="M633,678.1c0,0-3.4,0.2-7.9-2.5c0,0,5.5,3.9,8.8,4.7L633,678.1z"/>
			</g>
			<g id="XMLID_597_">
				<path id="XMLID_603_" fill="#DBAB95" d="M743.9,650.8c-5,16.3-7.2,31.8,1.7,34.6c8.9,2.8,25.5-8.3,30.5-24.6&#10;&#9;&#9;&#9;&#9;&#9;c5-16.3,1.9-31.8-7-34.5C760.2,623.5,748.9,634.5,743.9,650.8z"/>
				<path id="XMLID_601_" fill="#CC9C89" d="M761.2,638.6c0,0,2.9-5.3,6-5.1c3.2,0.2,9,11.6,2.9,25.4c-6.1,13.8-14.5,19.2-21.6,20.4&#10;&#9;&#9;&#9;&#9;&#9;C748.5,679.3,758.1,639.8,761.2,638.6z"/>
				<path id="XMLID_600_" fill="#BC8D7E" d="M757.3,653.9c0,0,6.3,1.5,6.9,4.4c0.6,2.9-0.1,3.7-4,3.4c-4-0.4-6.4,3.4-2.8,5.2&#10;&#9;&#9;&#9;&#9;&#9;s1.2,9.7-7,7.1C742.2,671.4,751.8,654.6,757.3,653.9z"/>
				<path id="XMLID_599_" fill="#BC8D7E" d="M757.7,644.1c0,0,5.7-12,10.5-10.4s5.6,12.3,3.9,19.6c0,0,0.5-15.4-4.5-17&#10;&#9;&#9;&#9;&#9;&#9;c-4.9-1.6-8,11.9-8,11.9s2.5-1.8,6.5-1.4c0,0-8.6,5.4-9.9,11.4C756.2,658.2,752.6,659.9,757.7,644.1z"/>
				<path id="XMLID_598_" fill="#BC8D7E" d="M749.4,677.8c0,0,3.4,0.4,8-2.2c0,0-5.6,3.7-9,4.3L749.4,677.8z"/>
			</g>
			<path id="XMLID_596_" fill="#E4B69D" d="M761.9,620l-20.1,91.9l-29.1,31.8c-6.5,1.2-12.3,1.8-17.3,2h0c-13.7,0.5-21.4-2-21.4-2&#10;&#9;&#9;&#9;&#9;l-33.3-31.8l-20.3-88.1c0,0-2.3-14.9,2.2-31.5c5.6-21,22.2-44.8,68-44.8c32.2,0,50.2,11.2,60.1,24.8&#10;&#9;&#9;&#9;&#9;C765.9,593.3,761.9,620,761.9,620z"/>
			<g id="XMLID_582_">
				<path id="XMLID_595_" fill="#A95F49" d="M680.7,629.4c0,0-17.8-13.7-44.2-9.7c0,0-2.6,1.7-0.3,4.1c2.3,2.5,20.6-4.9,44.2,9.7&#10;&#9;&#9;&#9;&#9;&#9;C680.5,633.5,683.8,632.7,680.7,629.4z"/>
				<path id="XMLID_594_" fill="#F5E0CD" d="M677.7,640.2c0,0-14-9.6-34.4-1.6c0,0,1.6,7.4,3.7,9.6c0,0,12.1,4,29.3,0&#10;&#9;&#9;&#9;&#9;&#9;C676.4,648.2,677.7,644.8,677.7,640.2z"/>
				<g id="XMLID_584_">
					<defs>
						<path id="XMLID_585_" d="M677.7,640.2c0,0-14-9.6-34.4-1.6c0,0,1.6,7.4,3.7,9.6c0,0,12.1,4,29.3,0&#10;&#9;&#9;&#9;&#9;&#9;&#9;&#9;C676.4,648.2,677.7,644.8,677.7,640.2z"/>
					</defs>
					<clipPath id="XMLID_10_">
						<use overflow="visible" xlink:href="#XMLID_585_"/>
					</clipPath>
					<g id="XMLID_586_" clip-path="url(#XMLID_10_)">
						<path d="M 669.999975 640.599976 A 8.4 8.4 0 0 1 661.599976 648.999975 A 8.4 8.4 0 0 1 653.199976 640.599976 A 8.4 8.4 0 0 1 661.599976 632.199976 A 8.4 8.4 0 0 1 669.999975 640.599976 Z" id="XMLID_593_" fill="#1C75BC"/>
						<path d="M 666.799975 640.599976 A 5.2 5.2 0 0 1 661.599976 645.799975 A 5.2 5.2 0 0 1 656.399976 640.599976 A 5.2 5.2 0 0 1 661.599976 635.399976 A 5.2 5.2 0 0 1 666.799975 640.599976 Z" id="XMLID_592_" fill="#07263D"/>
						
							<path d="M 668.3 636.5 A 3.8 2.3 0 0 1 664.5 638.8 A 3.8 2.3 0 0 1 660.7 636.5 A 3.8 2.3 0 0 1 664.5 634.2 A 3.8 2.3 0 0 1 668.3 636.5 Z" id="XMLID_591_" transform="matrix(-0.8109 -0.5852 0.5852 -0.8109 830.8233 1541.4666)" opacity="0.21" fill="#FFFFFF"/>
						
							<path d="M 661.300025 644.900024 A 2.9 1.8 0 0 1 658.400024 646.700024 A 2.9 1.8 0 0 1 655.500024 644.900024 A 2.9 1.8 0 0 1 658.400024 643.100024 A 2.9 1.8 0 0 1 661.300025 644.900024 Z" id="XMLID_589_" transform="matrix(-0.8109 -0.5852 0.5852 -0.8109 814.9985 1553.0818)" opacity="0.21" fill="#FFFFFF"/>
					</g>
				</g>
				<path id="XMLID_583_" fill="#4A0F00" d="M677.7,640.2c0,0-14.3-8.1-34.4-1.6C643.3,638.6,657.6,628,677.7,640.2z"/>
			</g>
			<g id="XMLID_565_">
				<path id="XMLID_581_" fill="#A95F49" d="M708.6,629.4c0,0,17.8-13.7,44.2-9.7c0,0,2.6,1.7,0.3,4.1c-2.3,2.5-20.6-4.9-44.2,9.7&#10;&#9;&#9;&#9;&#9;&#9;C708.8,633.5,705.5,632.7,708.6,629.4z"/>
				<path id="XMLID_579_" fill="#F5E0CD" d="M711.5,640.2c0,0,14-9.6,34.4-1.6c0,0-1.6,7.4-3.7,9.6c0,0-12.1,4-29.3,0&#10;&#9;&#9;&#9;&#9;&#9;C712.9,648.2,711.5,644.8,711.5,640.2z"/>
				<g id="XMLID_567_">
					<defs>
						<path id="XMLID_569_" d="M711.5,640.2c0,0,14-9.6,34.4-1.6c0,0-1.6,7.4-3.7,9.6c0,0-12.1,4-29.3,0&#10;&#9;&#9;&#9;&#9;&#9;&#9;&#9;C712.9,648.2,711.5,644.8,711.5,640.2z"/>
					</defs>
					<clipPath id="XMLID_11_">
						<use overflow="visible" xlink:href="#XMLID_569_"/>
					</clipPath>
					<g id="XMLID_570_" clip-path="url(#XMLID_11_)">
						<path d="M 734.800024 640.599976 A 8.4 8.4 0 0 1 726.400024 648.999975 A 8.4 8.4 0 0 1 718.000025 640.599976 A 8.4 8.4 0 0 1 726.400024 632.199976 A 8.4 8.4 0 0 1 734.800024 640.599976 Z" id="XMLID_576_" fill="#1C75BC"/>
						<path d="M 731.600024 640.599976 A 5.2 5.2 0 0 1 726.400024 645.799975 A 5.2 5.2 0 0 1 721.200025 640.599976 A 5.2 5.2 0 0 1 726.400024 635.399976 A 5.2 5.2 0 0 1 731.600024 640.599976 Z" id="XMLID_575_" fill="#07263D"/>
						
							<path d="M 733.099988 636.5 A 3.8 2.3 0 0 1 729.299988 638.8 A 3.8 2.3 0 0 1 725.499988 636.5 A 3.8 2.3 0 0 1 729.299988 634.2 A 3.8 2.3 0 0 1 733.099988 636.5 Z" id="XMLID_574_" transform="matrix(-0.8109 -0.5852 0.5852 -0.8109 948.1591 1579.3815)" opacity="0.21" fill="#FFFFFF"/>
						
							<path d="M 726.100012 644.900024 A 2.9 1.8 0 0 1 723.200012 646.700024 A 2.9 1.8 0 0 1 720.300012 644.900024 A 2.9 1.8 0 0 1 723.200012 643.100024 A 2.9 1.8 0 0 1 726.100012 644.900024 Z" id="XMLID_573_" transform="matrix(-0.8109 -0.5852 0.5852 -0.8109 932.3343 1590.9967)" opacity="0.21" fill="#FFFFFF"/>
					</g>
				</g>
				<path id="XMLID_566_" fill="#4A0F00" d="M711.5,640.2c0,0,14.3-8.1,34.4-1.6C746,638.6,731.7,628,711.5,640.2z"/>
			</g>
			<path id="XMLID_564_" fill="#CEA28B" d="M674,702.3c0,0,18.3,5.8,41.9-1.3C715.9,701,695.5,702.3,674,702.3z"/>
			<path id="XMLID_563_" fill="#CEA28B" d="M685.8,711.9c0,0,6.9,2.4,18,0c0,0-1.4,5.5-9.3,5.8S685.8,711.9,685.8,711.9z"/>
			<path id="XMLID_562_" fill="#CEA28B" d="M705.5,632.8l-4.5,9.7l5.8,43l-24.8,1.3l12.2,4.2l17.1-4.2l-7-44.3&#10;&#9;&#9;&#9;&#9;C704.4,642.6,704.3,637.6,705.5,632.8z"/>
			<path d="M 688.4000244140625 644.7000122070312 L 686.4000244140625 678.2999877929688 L 682 673.4000244140625 Z" id="XMLID_561_" fill="#F5C5B0"/>
			<path id="XMLID_560_" fill="#F5C5B0" d="M695.4,745.7c-13.7,0.5-21.4-2-21.4-2l-33.3-31.8l-20.3-88.1c0,0-2.3-14.9,2.2-31.5&#10;&#9;&#9;&#9;&#9;c2,12.8,13.3,84.4,23.1,119.6L674,740C674,740,683.4,744.9,695.4,745.7z"/>
			<path id="XMLID_559_" fill="#CC9C89" d="M761.9,620l-20.1,91.9l-29.1,31.8c-6.5,1.2-12.3,1.8-17.3,2l16-4.7l27.7-31.3l18.2-91.3&#10;&#9;&#9;&#9;&#9;c0,0,2.7-27.1-6.8-46C765.9,593.3,761.9,620,761.9,620z"/>
		</g>
		<path d="M 606.7999877929688 813.5999755859375 L 686.0999755859375 821.0999755859375 L 676.5999755859375 826.5 Z" id="XMLID_515_" fill="#CC9C89"/>
		<path d="M 778.5 813.5999755859375 L 699.2000122070312 821.0999755859375 L 708.7000122070312 826.5 Z" id="XMLID_514_" fill="#CC9C89"/>
		<path id="XMLID_513_" fill="#BC907E" d="M886,894.8h-15.2c-0.3-35.6-19.2-74.8-19.2-74.8L731,785.3l5.8-9l122.6,37.3&#10;&#9;&#9;&#9;C859.4,813.6,871.4,826.9,886,894.8z"/>
		<path d="M 695 857.5 L 694.2000122070312 894.7999877929688 L 699.2000122070312 894.7999877929688 Z" id="XMLID_511_" fill="#CC9C89"/>
		<g id="XMLID_522_">
			<path id="XMLID_621_" fill="#A95F49" d="M752.7,576.5c0,0-26.3,18-63.8,14.4c0,0,12.8-8.3,13.9-16.6c0,0-19.9,10.3-38.7,17.1&#10;&#9;&#9;&#9;&#9;c0,0,10.5-13.8,9.4-21.4c0,0-27.1,9.7-35.4,28.5c0,0,2.2-8.9,2.7-18.7c0,0-18.9,16-13.5,54.8l-6.8-8.7l-7.1,1.1&#10;&#9;&#9;&#9;&#9;c0,0-5.2-22.4,0-50.5c0,0-10.7,8.7-25.1,4.7c0,0,17,0.4,27.1-19.8c0,0-9.8,4.7-19.9,0c0,0,17.2-1.1,25-11.9c0,0-8.3,2.5-16.1,1.4&#10;&#9;&#9;&#9;&#9;c0,0,15.2-2.9,26.7-14.1c11.5-11.2,32.8-23.8,65.5-22.4c0,0-12.5-5-30.2-2.2c0,0,54.2-19.5,86.4,19.5V522c0,0,4.3,9,4.5,16.2&#10;&#9;&#9;&#9;&#9;c0,0,34.8,11.1,10.6,87.8c0,0-3.5-2.2-9.3,7.5C758.6,633.5,761.4,598.6,752.7,576.5z"/>
			<path id="XMLID_620_" fill="#CC7862" d="M745.7,533.6c0,0-67.4-29.2-110.4,18.7c0,0,19.3-20.8,47.1-18.5c0,0-15.6,6.3-21.6,18.5&#10;&#9;&#9;&#9;&#9;c0,0,18.3-14.1,42.5-12.3c0,0-12.5,6.1-16.9,15.1c0,0,29.6-16.6,64.1-7.9c0,0-27.3-11.1-43.1-5c0,0,11.6-6.1,22-4.7&#10;&#9;&#9;&#9;&#9;c0,0-22.7-5.8-37.4-0.7C691.9,536.8,705.3,523.1,745.7,533.6z"/>
			<path id="XMLID_619_" fill="#934732" d="M766.7,606c-2.6-24.9-13.6-42.2-13.6-42.2c-10.1,16.2-51.7,24.2-51.7,24.2&#10;&#9;&#9;&#9;&#9;c8.2-3.2,9.8-22.7,9.8-22.7c-8,7.2-37.2,18.4-37.2,18.4c6.5-6.5,7.9-21.6,7.9-21.6c-29.4,1.8-36.3,20.9-36.3,20.9&#10;&#9;&#9;&#9;&#9;c2.9-7.4-0.5-14.8-0.5-14.8c-22.1,21.5-23.4,52-20.4,63l2.7,3.4c-5.4-38.8,13.5-54.8,13.5-54.8c-0.5,9.9-2.7,18.7-2.7,18.7&#10;&#9;&#9;&#9;&#9;c8.3-18.7,35.4-28.5,35.4-28.5c1.1,7.6-9.4,21.4-9.4,21.4c18.8-6.7,38.7-17.1,38.7-17.1c-1.1,8.3-13.9,16.6-13.9,16.6&#10;&#9;&#9;&#9;&#9;c37.4,3.6,63.8-14.4,63.8-14.4c8.7,22.1,5.8,57,5.8,57c5.8-9.7,9.3-7.5,9.3-7.5c15.2-48.4,7-70.6-1.1-80.5&#10;&#9;&#9;&#9;&#9;C777.5,572.3,766.7,606,766.7,606z"/>
		</g>
		<path id="XMLID_617_" fill="#934732" d="M694.9,692.3c0,0-18.5-2.5-29.8,9.8c0,0-1.4,3.4-1.4,5.2c0,0,12.2-7.3,31.1-6.6&#10;&#9;&#9;&#9;L694.9,692.3z"/>
		<path id="XMLID_485_" fill="#934732" d="M694.6,692.3c0,0,18.5-2.5,29.8,9.8c0,0,1.4,3.4,1.4,5.2c0,0-12.2-7.3-31.1-6.6&#10;&#9;&#9;&#9;L694.6,692.3z"/>
	</g>
	<path id="XMLID_626_" fill="#9D952F" d="M891.8,894.8H507.3c0,0,10.2-56.6,28.9-84.6l86.2-25.7l13.5-4c0,0,43.3,65.7,59.2,66.6&#10;&#9;&#9;c21,1.2,62.9-66.6,62.9-66.6l11.6,3.4l94.3,27.7C863.9,811.6,884.7,844.9,891.8,894.8z"/>
	<path id="XMLID_623_" fill="#828028" d="M892.5,894.8h-12c0,0-8.4-47.3-24.4-74.8l-102.8-31.1c3.4-5.1,5.4-8.4,5.4-8.4l11.6,3.4&#10;&#9;&#9;l94.3,27.7C864.5,811.6,885.4,844.9,892.5,894.8z"/>
	<path id="XMLID_554_" fill="#828028" d="M769.6,783.9c-37.5,76.5-72.6,77-72.6,77c-27,0-65.3-59.9-74.5-76.3l13.5-4&#10;&#9;&#9;c0,0,43.3,65.7,59.2,66.6c21,1.2,62.9-66.6,62.9-66.6L769.6,783.9z"/>
</g><g id="XMLID_123_" transform="matrix(1, 0, 0, 1, -843.9705525668318, -434.05567677851957)">
	<path id="XMLID_205_" fill="#8C8C94" d="M1036.5,763.7c0,0,72.4-8,115.5,0v29.8h-115.5V763.7z"/>
	<g id="XMLID_126_">
		<path id="XMLID_188_" fill="#E4B69D" d="M1288.4,892.9H911.6c14.7-67.9,26.6-81.3,26.6-81.3l122.7-37.3h78l0.1,0l122.6,37.3&#10;&#9;&#9;&#9;C1261.7,811.7,1273.7,825,1288.4,892.9z"/>
		<g id="XMLID_185_">
			<path d="M 1144.300048828125 783.4000244140625 L 1048.800048828125 783.4000244140625 L 1053.199951171875 715.7000122070312 L 1076.5999755859375 715.4000244140625 L 1137.0999755859375 714.5999755859375 Z" id="XMLID_187_" fill="#E4B69D"/>
			<path id="XMLID_186_" fill="#BC907E" d="M1144.3,783.4h-11l-4.4-45c0,0-10.5,15.7-29.9,15.5c-26.6-0.1-45.6-30.9-45.6-30.9&#10;&#9;&#9;&#9;&#9;l23.2-7.6l60.5-0.8L1144.3,783.4z"/>
		</g>
		<path id="XMLID_184_" fill="#F5C5B0" d="M1056.4,722.1l-2.9,63.4l-107.2,32.6c-14.7,24.6-23.5,74.8-23.5,74.8h-11.1&#10;&#9;&#9;&#9;c14.7-67.9,26.6-81.3,26.6-81.3l110.9-33.7l3.8-57.9L1056.4,722.1z"/>
		<g id="XMLID_142_">
			<g id="XMLID_178_">
				<path id="XMLID_183_" fill="#F5C5B0" d="M1041.8,649.5c4.4,16.5,6,32.1-3,34.5c-9,2.4-25.1-9.2-29.6-25.7&#10;&#9;&#9;&#9;&#9;&#9;c-4.4-16.5-0.7-31.8,8.2-34.3C1026.5,621.5,1037.4,633,1041.8,649.5z"/>
				<path id="XMLID_182_" fill="#E4B69D" d="M1025,636.6c0,0-2.7-5.4-5.8-5.3s-9.4,11.3-3.9,25.3c5.6,14,13.8,19.7,20.9,21.2&#10;&#9;&#9;&#9;&#9;&#9;C1036.1,677.8,1028.1,638,1025,636.6z"/>
				<path id="XMLID_181_" fill="#CEA28B" d="M1028.3,652.1c0,0-6.4,1.2-7.1,4.1c-0.7,2.9-0.1,3.7,3.9,3.5c4-0.2,6.3,3.7,2.6,5.3&#10;&#9;&#9;&#9;&#9;&#9;s-1.5,9.7,6.8,7.4C1042.8,670.1,1033.8,652.9,1028.3,652.1z"/>
				<path id="XMLID_180_" fill="#CEA28B" d="M1028.3,642.2c0,0-5.2-12.2-10.1-10.8c-4.9,1.4-6.1,12.1-4.6,19.4&#10;&#9;&#9;&#9;&#9;&#9;c0,0,0.1-15.4,5.1-16.8c5-1.4,7.5,12.2,7.5,12.2s-2.4-1.9-6.4-1.6c0,0,8.4,5.7,9.5,11.7C1029.2,656.4,1032.8,658.2,1028.3,642.2&#10;&#9;&#9;&#9;&#9;&#9;z"/>
				<path id="XMLID_179_" fill="#CEA28B" d="M1035.3,676.2c0,0-3.4,0.2-7.9-2.5c0,0,5.5,3.9,8.8,4.7L1035.3,676.2z"/>
			</g>
			<g id="XMLID_172_">
				<path id="XMLID_177_" fill="#DBAB95" d="M1146.2,648.9c-5,16.3-7.2,31.8,1.7,34.6c8.9,2.8,25.5-8.3,30.5-24.6&#10;&#9;&#9;&#9;&#9;&#9;c5-16.3,1.9-31.8-7-34.5C1162.5,621.6,1151.2,632.6,1146.2,648.9z"/>
				<path id="XMLID_176_" fill="#CC9C89" d="M1163.5,636.7c0,0,2.9-5.3,6-5.1c3.2,0.2,9,11.6,2.9,25.4&#10;&#9;&#9;&#9;&#9;&#9;c-6.1,13.8-14.5,19.2-21.6,20.4C1150.9,677.4,1160.4,637.9,1163.5,636.7z"/>
				<path id="XMLID_175_" fill="#BC8D7E" d="M1159.7,652c0,0,6.3,1.5,6.9,4.4c0.6,2.9-0.1,3.7-4,3.4c-4-0.4-6.4,3.4-2.8,5.2&#10;&#9;&#9;&#9;&#9;&#9;c3.6,1.8,1.2,9.7-7,7.1C1144.5,669.5,1154.1,652.7,1159.7,652z"/>
				<path id="XMLID_174_" fill="#BC8D7E" d="M1160,642.2c0,0,5.7-12,10.5-10.4s5.6,12.3,3.9,19.6c0,0,0.5-15.4-4.5-17&#10;&#9;&#9;&#9;&#9;&#9;s-8,11.9-8,11.9s2.5-1.8,6.5-1.4c0,0-8.6,5.4-9.9,11.4C1158.5,656.3,1154.9,658,1160,642.2z"/>
				<path id="XMLID_173_" fill="#BC8D7E" d="M1151.7,675.9c0,0,3.4,0.4,8-2.2c0,0-5.6,3.7-9,4.3L1151.7,675.9z"/>
			</g>
			<path id="XMLID_171_" fill="#E4B69D" d="M1164.3,618.1l-20.1,91.9l-29.1,31.8c-6.5,1.2-12.3,1.8-17.3,2h0&#10;&#9;&#9;&#9;&#9;c-13.7,0.5-21.4-2-21.4-2L1043,710l-20.3-88.1c0,0-2.3-14.9,2.2-31.5c5.6-21,22.2-44.8,68-44.8c32.2,0,50.2,11.2,60.1,24.8&#10;&#9;&#9;&#9;&#9;C1168.2,591.4,1164.3,618.1,1164.3,618.1z"/>
			<g id="XMLID_160_">
				<path id="XMLID_170_" fill="#AD6728" d="M1083.1,627.5c0,0-17.8-13.7-44.2-9.7c0,0-2.6,1.7-0.3,4.1c2.3,2.4,20.6-4.9,44.2,9.7&#10;&#9;&#9;&#9;&#9;&#9;C1082.8,631.6,1086.1,630.8,1083.1,627.5z"/>
				<path id="XMLID_169_" fill="#F5E0CD" d="M1080.1,638.2c0,0-14-9.6-34.4-1.6c0,0,1.6,7.4,3.7,9.6c0,0,12.1,4,29.3,0&#10;&#9;&#9;&#9;&#9;&#9;C1078.7,646.3,1080.1,642.9,1080.1,638.2z"/>
				<g id="XMLID_162_">
					<defs>
						<path id="XMLID_163_" d="M1080.1,638.2c0,0-14-9.6-34.4-1.6c0,0,1.6,7.4,3.7,9.6c0,0,12.1,4,29.3,0&#10;&#9;&#9;&#9;&#9;&#9;&#9;&#9;C1078.7,646.3,1080.1,642.9,1080.1,638.2z"/>
					</defs>
					<clipPath id="XMLID_4_">
						<use overflow="visible" xlink:href="#XMLID_163_"/>
					</clipPath>
					<g id="XMLID_164_" clip-path="url(#XMLID_4_)">
						<path d="M 1072.300024 638.700012 A 8.4 8.4 0 0 1 1063.900024 647.100012 A 8.4 8.4 0 0 1 1055.500025 638.700012 A 8.4 8.4 0 0 1 1063.900024 630.300013 A 8.4 8.4 0 0 1 1072.300024 638.700012 Z" id="XMLID_168_" fill="#709E40"/>
						<path d="M 1069.100024 638.700012 A 5.2 5.2 0 0 1 1063.900024 643.900012 A 5.2 5.2 0 0 1 1058.700025 638.700012 A 5.2 5.2 0 0 1 1063.900024 633.500012 A 5.2 5.2 0 0 1 1069.100024 638.700012 Z" id="XMLID_167_" fill="#2E401F"/>
						
							<path d="M 1070.600049 634.599976 A 3.8 2.3 0 0 1 1066.800049 636.899976 A 3.8 2.3 0 0 1 1063.000049 634.599976 A 3.8 2.3 0 0 1 1066.800049 632.299976 A 3.8 2.3 0 0 1 1070.600049 634.599976 Z" id="XMLID_166_" transform="matrix(-0.8109 -0.5852 0.5852 -0.8109 1560.5427 1773.4204)" opacity="0.21" fill="#FFFFFF"/>
						
							<path d="M 1063.700049 642.900024 A 2.9 1.8 0 0 1 1060.800049 644.700024 A 2.9 1.8 0 0 1 1057.900049 642.900024 A 2.9 1.8 0 0 1 1060.800049 641.100024 A 2.9 1.8 0 0 1 1063.700049 642.900024 Z" id="XMLID_165_" transform="matrix(-0.8109 -0.5852 0.5852 -0.8109 1544.7179 1785.0356)" opacity="0.21" fill="#FFFFFF"/>
					</g>
				</g>
				<path id="XMLID_161_" fill="#4A0F00" d="M1080.1,638.2c0,0-14.3-8.1-34.4-1.6C1045.7,636.7,1059.9,626,1080.1,638.2z"/>
			</g>
			<g id="XMLID_149_">
				<path id="XMLID_159_" fill="#AD6728" d="M1110.9,627.5c0,0,17.8-13.7,44.2-9.7c0,0,2.6,1.7,0.3,4.1c-2.3,2.4-20.6-4.9-44.2,9.7&#10;&#9;&#9;&#9;&#9;&#9;C1111.2,631.6,1107.8,630.8,1110.9,627.5z"/>
				<path id="XMLID_158_" fill="#F5E0CD" d="M1113.9,638.2c0,0,14-9.6,34.4-1.6c0,0-1.6,7.4-3.7,9.6c0,0-12.1,4-29.3,0&#10;&#9;&#9;&#9;&#9;&#9;C1115.2,646.3,1113.9,642.9,1113.9,638.2z"/>
				<g id="XMLID_151_">
					<defs>
						<path id="XMLID_152_" d="M1113.9,638.2c0,0,14-9.6,34.4-1.6c0,0-1.6,7.4-3.7,9.6c0,0-12.1,4-29.3,0&#10;&#9;&#9;&#9;&#9;&#9;&#9;&#9;C1115.2,646.3,1113.9,642.9,1113.9,638.2z"/>
					</defs>
					<clipPath id="XMLID_5_">
						<use overflow="visible" xlink:href="#XMLID_152_"/>
					</clipPath>
					<g id="XMLID_153_" clip-path="url(#XMLID_5_)">
						<path d="M 1137.099951 638.700012 A 8.4 8.4 0 0 1 1128.699951 647.100012 A 8.4 8.4 0 0 1 1120.299952 638.700012 A 8.4 8.4 0 0 1 1128.699951 630.300013 A 8.4 8.4 0 0 1 1137.099951 638.700012 Z" id="XMLID_157_" fill="#709E40"/>
						<path d="M 1133.899951 638.700012 A 5.2 5.2 0 0 1 1128.699951 643.900012 A 5.2 5.2 0 0 1 1123.499951 638.700012 A 5.2 5.2 0 0 1 1128.699951 633.500012 A 5.2 5.2 0 0 1 1133.899951 638.700012 Z" id="XMLID_156_" fill="#2E401F"/>
						
							<path d="M 1135.399976 634.599976 A 3.8 2.3 0 0 1 1131.599976 636.899976 A 3.8 2.3 0 0 1 1127.799976 634.599976 A 3.8 2.3 0 0 1 1131.599976 632.299976 A 3.8 2.3 0 0 1 1135.399976 634.599976 Z" id="XMLID_155_" transform="matrix(-0.8109 -0.5852 0.5852 -0.8109 1677.8785 1811.3353)" opacity="0.21" fill="#FFFFFF"/>
						
							<path d="M 1128.499976 642.900024 A 2.9 1.8 0 0 1 1125.599976 644.700024 A 2.9 1.8 0 0 1 1122.699975 642.900024 A 2.9 1.8 0 0 1 1125.599976 641.100024 A 2.9 1.8 0 0 1 1128.499976 642.900024 Z" id="XMLID_154_" transform="matrix(-0.8109 -0.5852 0.5852 -0.8109 1662.0537 1822.9504)" opacity="0.21" fill="#FFFFFF"/>
					</g>
				</g>
				<path id="XMLID_150_" fill="#4A0F00" d="M1113.9,638.2c0,0,14.3-8.1,34.4-1.6C1148.3,636.7,1134,626,1113.9,638.2z"/>
			</g>
			<path id="XMLID_148_" fill="#CEA28B" d="M1076.3,700.4c0,0,18.3,5.8,41.9-1.3C1118.3,699.1,1097.9,700.4,1076.3,700.4z"/>
			<path id="XMLID_147_" fill="#CEA28B" d="M1088.1,710c0,0,6.9,2.4,18,0c0,0-1.4,5.5-9.3,5.8C1088.8,716,1088.1,710,1088.1,710z"/>
			<path id="XMLID_146_" fill="#CEA28B" d="M1107.9,630.9l-4.5,9.7l5.8,43l-24.8,1.3l12.2,4.2l17.1-4.2l-7-44.3&#10;&#9;&#9;&#9;&#9;C1106.8,640.6,1106.6,635.7,1107.9,630.9z"/>
			<path d="M 1090.800048828125 642.7000122070312 L 1088.699951171875 676.2999877929688 L 1084.4000244140625 671.5 Z" id="XMLID_145_" fill="#F5C5B0"/>
			<path id="XMLID_144_" fill="#F5C5B0" d="M1097.7,743.8c-13.7,0.5-21.4-2-21.4-2L1043,710l-20.3-88.1c0,0-2.3-14.9,2.2-31.5&#10;&#9;&#9;&#9;&#9;c2,12.8,13.3,84.4,23.1,119.6l28.3,28.1C1076.3,738.1,1085.7,742.9,1097.7,743.8z"/>
			<path id="XMLID_143_" fill="#CC9C89" d="M1164.3,618.1l-20.1,91.9l-29.1,31.8c-6.5,1.2-12.3,1.8-17.3,2l16-4.7l27.7-31.3&#10;&#9;&#9;&#9;&#9;l18.2-91.3c0,0,2.7-27.1-6.8-46C1168.2,591.4,1164.3,618.1,1164.3,618.1z"/>
		</g>
		<path d="M 1009.0999755859375 811.7000122070312 L 1088.5 819.2000122070312 L 1078.9000244140625 824.5 Z" id="XMLID_130_" fill="#CC9C89"/>
		<path d="M 1180.800048828125 811.7000122070312 L 1101.5 819.2000122070312 L 1111.0999755859375 824.5 Z" id="XMLID_129_" fill="#CC9C89"/>
		<path id="XMLID_128_" fill="#BC907E" d="M1288.4,892.9h-15.2c-0.3-35.6-19.2-74.8-19.2-74.8l-120.6-34.7l5.8-9l122.6,37.3&#10;&#9;&#9;&#9;C1261.7,811.7,1273.7,825,1288.4,892.9z"/>
		<path d="M 1097.300048828125 855.5999755859375 L 1096.5999755859375 892.9000244140625 L 1101.5 892.9000244140625 Z" id="XMLID_127_" fill="#CC9C89"/>
		<g id="XMLID_191_">
			<path d="M 1037.9000244140625 637.5999755859375 L 1022 622.2000122070312 L 1022 618.7000122070312 L 1039.4000244140625 632.5999755859375 Z" id="XMLID_204_" fill="#64596E"/>
			<path id="XMLID_203_" opacity="0.2" fill="#BEB9A0" d="M1087.3,636.3c0,0-20.2-10.7-48-3.7c0,0-1.7,9.1,0.9,21.1&#10;&#9;&#9;&#9;&#9;c0,0,24.7,5.9,46.5,0C1086.7,653.7,1088.7,644.9,1087.3,636.3z"/>
			<path id="XMLID_202_" fill="#64596E" d="M1087.3,636.3c0,0,7.8-5.6,17.4,0v2.5c0,0-8.4-4.5-17.1,0L1087.3,636.3z"/>
			<g id="XMLID_198_">
				<path id="XMLID_199_" fill="#0D1920" d="M1065,657.7L1065,657.7c-13.8,0-24.6-2.5-25.1-2.7l-0.9-0.2l-0.2-0.9&#10;&#9;&#9;&#9;&#9;&#9;c-2.7-12.2-1-21.3-0.9-21.7l0.2-0.9l0.9-0.2c6.4-1.6,12.9-2.4,19.3-2.4c17.6,0,29.2,6,29.6,6.2l0.6,0.3l0.1,0.7&#10;&#9;&#9;&#9;&#9;&#9;c1.3,8.8-0.5,17.6-0.6,18l-0.2,0.9l-0.8,0.2C1080.6,656.9,1073.1,657.7,1065,657.7z M1041.3,653.5c2.8,0.6,12.3,2.6,23.5,2.6&#10;&#9;&#9;&#9;&#9;&#9;l0,0c7.5,0,14.5-0.9,20.6-2.5c0.4-2.3,1.5-9.8,0.7-16.3c-2.6-1.2-13-5.6-27.7-5.6c-5.9,0-11.9,0.7-17.7,2.1&#10;&#9;&#9;&#9;&#9;&#9;C1040.3,636.2,1039.5,644.4,1041.3,653.5z"/>
			</g>
			<path d="M 1153.699951171875 637.5999755859375 L 1164.800048828125 622.2000122070312 L 1164.800048828125 618.7000122070312 L 1152.699951171875 632.5999755859375 Z" id="XMLID_197_" fill="#64596E"/>
			<path id="XMLID_196_" opacity="0.2" fill="#BEB9A0" d="M1104.7,636.3c0,0,20.2-10.7,48-3.7c0,0,1.7,9.1-0.9,21.1&#10;&#9;&#9;&#9;&#9;c0,0-24.7,5.9-46.5,0C1105.3,653.7,1103.4,644.9,1104.7,636.3z"/>
			<g id="XMLID_192_">
				<path id="XMLID_193_" fill="#0D1920" d="M1127.1,657.7c-8.1,0-15.6-0.9-22.1-2.7l-0.8-0.2l-0.2-0.9c-0.1-0.4-2-9.2-0.6-18&#10;&#9;&#9;&#9;&#9;&#9;l0.1-0.7l0.6-0.3c0.5-0.3,12-6.2,29.6-6.2c6.5,0,13,0.8,19.3,2.4l0.9,0.2l0.2,0.9c0.1,0.4,1.7,9.5-0.9,21.7l-0.2,0.9l-0.9,0.2&#10;&#9;&#9;&#9;&#9;&#9;C1151.7,655.2,1140.8,657.7,1127.1,657.7z M1106.5,653.5c6.1,1.6,13.1,2.5,20.7,2.5c11.2,0,20.9-2.1,23.7-2.7&#10;&#9;&#9;&#9;&#9;&#9;c1.8-9.1,0.9-17.1,0.6-19.5c-5.8-1.4-11.8-2.1-17.7-2.1c-14.7,0-25,4.4-27.7,5.6C1105.2,643.7,1106.1,651.3,1106.5,653.5z"/>
			</g>
		</g>
		<g id="XMLID_131_">
			<path id="XMLID_190_" fill="#E5952E" d="M1072.8,557.4c0,0,8.4,28.4,36.4,37.4c28,9,52.3,40.2,46.6,60.6c0,0,11.2-20.6,0.8-45.1&#10;&#9;&#9;&#9;&#9;c0,0,10.4,23.3,4.4,41.4c0,0,19.6-20.1,11.2-56.9l5.4,17.6c0,0,7.5-51.3-27.9-79c-35.4-27.7-65.8-26.5-80-15.3&#10;&#9;&#9;&#9;&#9;c0,0-34-2.1-50.5,39.2c-16.5,41.3-2.4,74.5,7.5,88c0,0-8.2-43,8-66.5c0,0-9.6,24.5-4.6,52.3C1030.1,631.2,1031,582,1072.8,557.4z&#10;&#9;&#9;&#9;&#9;"/>
			<path id="XMLID_189_" fill="#D38028" d="M1151.9,535.4c17.1,26.4,13.7,43.2,13.7,43.2l-9-10.6c8.8,14.8,5.6,42.4,5.6,42.4&#10;&#9;&#9;&#9;&#9;c-1.8-10.3-12.8-22.5-12.8-22.5v24.7c0,0-2.5-14.1-32.1-21.5c-29.6-7.4-44.9-45.3-44.9-45.3c-27.8,13.9-34.6,37.4-34.6,37.4&#10;&#9;&#9;&#9;&#9;l-3-14.7c-23.6,28.7-12.5,65.7-8.7,76c0.2,0.4,0.5,0.7,0.7,1c0,0-8.2-43,8-66.5c0,0-9.6,24.5-4.6,52.3c0,0,0.9-49.1,42.7-73.8&#10;&#9;&#9;&#9;&#9;c0,0,8.4,28.4,36.4,37.4c28,9,52.3,40.2,46.6,60.6c0,0,11.2-20.6,0.8-45.1c0,0,10.4,23.3,4.4,41.4c0,0,19.6-20.1,11.2-56.9&#10;&#9;&#9;&#9;&#9;l5.4,17.6C1177.5,612.5,1184.7,563.4,1151.9,535.4z"/>
			<path id="XMLID_122_" fill="#F3A651" d="M1067.8,523.1c0,0-22.2,0.9-33.1,22.6c0,0,11.2-12,16.6-11.3c0,0-9.4,7.2-9.7,27&#10;&#9;&#9;&#9;&#9;c0,0,10-25.9,31.6-26.1c0,0,9.8,21,26.7,28.4c16.9,7.4,29.3,7.4,39.4,21.3c0,0-9.9-19-27.9-26.3c0,0,17.1-4.2,29.2,6.5&#10;&#9;&#9;&#9;&#9;c0,0-14.3-24.5-37-29.8c0,0,18.4-3,30,6.7c0,0-11.4-19-38.6-19l12.2,5.2c0,0-7.5-0.1-16.4,4.5c0,0,22.1,10.5,28.5,18&#10;&#9;&#9;&#9;&#9;c0,0-8.1-4.2-16.9-1.4l3.2,8.8c0,0-23.4-11.4-27.8-25.6c-0.2-0.8-0.4-1.5-0.5-2.3c0,0-16.1-2.6-22.1,5&#10;&#9;&#9;&#9;&#9;C1055,535.4,1059.3,525.9,1067.8,523.1z"/>
		</g>
	</g>
	<path id="XMLID_141_" fill="#473F65" d="M1290.9,893.6H906.4c0,0,10.2-56.6,28.9-84.6l86.2-25.7l13.5-4c0,0,43.3,65.7,59.2,66.6&#10;&#9;&#9;c16.4,0.9,45.5-40.1,57.4-58.2c3.4-5.1,5.4-8.4,5.4-8.4l11.6,3.4l94.3,27.7C1263,810.3,1283.8,843.6,1290.9,893.6z"/>
	<path id="XMLID_140_" fill="#2F2942" d="M1290.9,893.6h-12c0,0-8.4-47.3-24.4-74.8l-102.8-31.1c3.4-5.1,5.4-8.4,5.4-8.4l11.6,3.4&#10;&#9;&#9;l94.3,27.7C1263,810.3,1283.8,843.6,1290.9,893.6z"/>
	<path id="XMLID_139_" fill="#A1A1AA" d="M1087.1,819.8l7.1,26h-25.8C1068.5,845.8,1073,828.5,1087.1,819.8z"/>
	<path d="M 1068.5 845.7999877929688 L 1096 885.9000244140625 L 1120 845.7999877929688 Z" id="XMLID_207_" fill="#A1A1AA"/>
	<path id="XMLID_138_" fill="#C8C8D3" d="M1036.5,763.7l-15,19.6l46.5,70.1c0,0,3.7-18.2,19.1-33.5L1036.5,763.7z"/>
	<path id="XMLID_137_" fill="#A1A1AA" d="M1101.4,819.8l-7.1,26h25.8C1120,845.8,1115.5,828.5,1101.4,819.8z"/>
	<path id="XMLID_136_" fill="#C8C8D3" d="M1152,763.7l15,19.6l-46.5,70.1c0,0-3.7-18.2-19.1-33.5L1152,763.7z"/>
</g><linearGradient id="SVGID_1_" gradientUnits="userSpaceOnUse" x1="1969.3154" y1="413.4822" x2="1969.3154" y2="563.6288" gradientTransform="matrix(1 0 0 1 -1268.5535 0)">
				<stop offset="1.891892e-02" style="stop-color:#F0D0B4"/>
				<stop offset="1" style="stop-color:#B34A26"/>
			</linearGradient><path d="M 860 781 L 540 781 L 570.7000122070312 642.7000122070312 L 829.2999877929688 642.7000122070312 Z" fill="#543E36" transform="matrix(0.5400754399168656, 0, 0, 0.5400754399168656, -119.10062662327394, 398.3206469002289)"/><path d="M 784.4000244140625 711.2999877929688 L 615.5999755859375 711.2999877929688 L 381 821.7999877929688 L 381 952.5999755859375 L 1019 952.5999755859375 L 1019 821.7999877929688 Z" fill="#F0D0B4" transform="matrix(0.5400754399168656, 0, 0, 0.5400754399168656, -119.10062662327394, 398.3206469002289)"/><path d="M 817.2000122070312 858 L 582.7999877929688 858 L 619.2999877929688 507.29998779296875 L 780.7000122070312 507.29998779296875 Z" fill="#F0D0B4" transform="matrix(0.5400754399168656, 0, 0, 0.5400754399168656, -119.10062662327394, 398.3206469002289)"/><path fill="#DFB28B" d="M795.1,646.5l-14.5-139.2H619.3L609,606.5C609,606.5,718.8,689.9,795.1,646.5z" transform="matrix(0.5400754399168656, 0, 0, 0.5400754399168656, -119.10062662327394, 398.3206469002289)"/><path fill="#FFFFFF" d="M815.4,731c-6.4,27.9-55.6,49.6-115.4,49.6S591,758.9,584.6,731l-179.9,83c-20,9.2-34.6,26.6-39.5,47.1&#10;&#9;&#9;&#9;l-23.7,98.7h717.1l-22.9-95.5c-5.4-22.5-21.3-41.5-43.3-51.7L815.4,731z" transform="matrix(0.5400754399168656, 0, 0, 0.5400754399168656, -119.10062662327394, 398.3206469002289)"/><path fill="#BEC9CB" d="M573.8,959.8h484.7l-22.9-95.5c-5.4-22.5-21.3-41.5-43.3-51.7L815.4,731c-4.4,19.4-29.7,35.9-64.9,44&#10;&#9;&#9;&#9;l-82.4,152.1l19.5-111C687.7,816.1,616,918.8,573.8,959.8z" transform="matrix(0.5400754399168656, 0, 0, 0.5400754399168656, -119.10062662327394, 398.3206469002289)"/><path fill="#EBC19C" d="M595.3,459.8l-16.2-10.3c-6.5-4.1-14.6-2.2-17.7,4.3l-1,2c-1.7,3.6-1.6,7.9,0.3,11.6l22.3,43.7&#10;&#9;&#9;&#9;&#9;c1.3,2.5,3.4,4.6,5.9,5.9l3.7,1.9c5,2.6,11,1.7,14.6-2.2l2.4-2.6c2.7-3,3.6-7.2,2.4-11.3l-10.8-35.2&#10;&#9;&#9;&#9;&#9;C600.3,464.4,598.1,461.6,595.3,459.8z" transform="matrix(0.5400754399168656, 0, 0, 0.5400754399168656, -119.10062662327394, 398.3206469002289)"/><path fill="#EBC19C" d="M800.9,462.9l13.8-13.5c5.6-5.4,14.1-5.4,18.6,0.1l1.4,1.7c2.5,3,3.3,7.2,2.2,11.3L824,509.3&#10;&#9;&#9;&#9;&#9;c-0.7,2.7-2.4,5.2-4.6,7l-3.3,2.6c-4.5,3.6-10.6,4-14.9,1l-2.9-2c-3.3-2.3-5.1-6.1-4.8-10.3l3.2-36.1&#10;&#9;&#9;&#9;&#9;C797,468.4,798.5,465.2,800.9,462.9z" transform="matrix(0.5400754399168656, 0, 0, 0.5400754399168656, -119.10062662327394, 398.3206469002289)"/><path d="M 754.2999877929688 241.10000610351562 L 648.5999755859375 241.10000610351562 L 581.2000122070312 341.20001220703125 L 596.9000244140625 556.4000244140625 L 663.7999877929688 626.7000122070312 L 736.7999877929688 626.7000122070312 L 804.0999755859375 556.4000244140625 L 821.0999755859375 341.20001220703125 Z" fill="#F0D0B4" transform="matrix(0.5400754399168656, 0, 0, 0.5400754399168656, -119.10062662327394, 398.3206469002289)"/><path d="M 715.7000122070312 491.6000061035156 L 711.7000122070312 491.6000061035156 L 719.7999877929688 419.8999938964844 L 682 419.8999938964844 L 689.7000122070312 491.6000061035156 L 685.7999877929688 491.6000061035156 L 681.7000122070312 512.7999877929688 L 687.9000244140625 516.4000244140625 L 693.2999877929688 525.9000244140625 L 694.9000244140625 525.9000244140625 L 706.2999877929688 525.9000244140625 L 707.9000244140625 525.9000244140625 L 714.2000122070312 516.4000244140625 L 719.5999755859375 512.7999877929688 Z" fill="url(#SVGID_1_)" transform="matrix(0.5400754399168656, 0, 0, 0.5400754399168656, -119.10062662327394, 398.3206469002289)"/><path fill="#9A714A" d="M693.3,525.9h1.6h11.4h1.6l6.2-9.5l5.4-3.6c-20.8-15.4-37.8,0-37.8,0l6.2,3.6L693.3,525.9z" transform="matrix(0.5400754399168656, 0, 0, 0.5400754399168656, -119.10062662327394, 398.3206469002289)"/><path opacity="0.5" fill="#EFC7B1" d="M711.6,507.2c-0.1,4.8-5,8.6-11,8.6s-10.9-3.9-10.9-8.6c0-4.8,4.9-8.7,11-8.7&#10;&#9;&#9;&#9;&#9;S711.6,502.4,711.6,507.2z" transform="matrix(0.5400754399168656, 0, 0, 0.5400754399168656, -119.10062662327394, 398.3206469002289)"/><path fill="#EBC19C" d="M736.8,626.7l67.4-70.4l6.7-84.8C760.5,485.8,736.8,626.7,736.8,626.7z" transform="matrix(0.5400754399168656, 0, 0, 0.5400754399168656, -119.10062662327394, 398.3206469002289)"/><path fill="#EBC19C" d="M590.7,471.4l6.2,85l67,70.4C643.5,531.9,612.5,489.4,590.7,471.4z" transform="matrix(0.5400754399168656, 0, 0, 0.5400754399168656, -119.10062662327394, 398.3206469002289)"/><path d="M 648.0999755859375 409.79998779296875 L 631.7000122070312 418.1000061035156 L 662.5 435.5 L 668.9000244140625 441.6000061035156 L 686.2999877929688 409.79998779296875 Z" fill="#DFB28B" transform="matrix(0.5400754399168656, 0, 0, 0.5400754399168656, -119.10062662327394, 398.3206469002289)"/><path d="M 732.5999755859375 413.20001220703125 L 767.5999755859375 412.3999938964844 L 739.4000244140625 438.20001220703125 L 733 441.6000061035156 L 715.0999755859375 418.3999938964844 Z" fill="#DFB28B" transform="matrix(0.5400754399168656, 0, 0, 0.5400754399168656, -119.10062662327394, 398.3206469002289)"/><g transform="matrix(0.5400754399168656, 0, 0, 0.5400754399168656, -119.10062662327394, 398.3206469002289)">
				<path fill="#A46C35" d="M682.2,408.2l-2.9,12.4l-1.6-12.5l-44.9-0.4l-17.9,16.4c0,0,26.9-23.2,49,0.4l22.7,0.2l2.6-16.5&#10;&#9;&#9;&#9;&#9;&#9;L682.2,408.2z"/>
			</g><path fill="#A46C35" d="M719.7,408.2l2.8,12.4l1.7-12.5l44.9-0.4l17.8,16.4c0,0-26.7-23.2-49,0.4l-22.7,0.2l-2.5-16.5&#10;&#9;&#9;&#9;&#9;&#9;L719.7,408.2z" transform="matrix(0.5400754399168656, 0, 0, 0.5400754399168656, -119.10062662327394, 398.3206469002289)"/><path d="M 735.4000244140625 431.8999938964844 L 739.0999755859375 439.6000061035156 L 763.2000122070312 439.6000061035156 L 767 434.1000061035156 L 767.2000122070312 439.6000061035156 L 774.0999755859375 439.6000061035156 L 769.2999877929688 430.79998779296875 L 734.7999877929688 428.5 L 728.2000122070312 439.6000061035156 L 734.5 439.6000061035156 Z" fill="#553F37" transform="matrix(0.5400754399168656, 0, 0, 0.5400754399168656, -119.10062662327394, 398.3206469002289)"/><path d="M 664.5999755859375 431.8999938964844 L 660.9000244140625 439.6000061035156 L 636.7999877929688 439.6000061035156 L 633 434.1000061035156 L 632.7999877929688 439.6000061035156 L 625.9000244140625 439.6000061035156 L 630.7999877929688 430.79998779296875 L 665.2999877929688 428.5 L 671.7999877929688 439.6000061035156 L 665.5 439.6000061035156 Z" fill="#553F37" transform="matrix(0.5400754399168656, 0, 0, 0.5400754399168656, -119.10062662327394, 398.3206469002289)"/><path fill="#DFB28B" d="M702.6,545.8c-20.6,1.2-40.8-1-40.8-1l34.2-6.3l4.9,1.7l4.4-1.7l42.8,1.6&#10;&#9;&#9;&#9;C748,540.1,725.1,544.5,702.6,545.8z" transform="matrix(0.5400754399168656, 0, 0, 0.5400754399168656, -119.10062662327394, 398.3206469002289)"/><path d="M 692.5 527.9000244140625 L 654 538.5999755859375 L 652.2999877929688 545.5999755859375 L 698.2999877929688 535.9000244140625 Z" fill="#C1A68E" transform="matrix(0.5400754399168656, 0, 0, 0.5400754399168656, -119.10062662327394, 398.3206469002289)"/><path d="M 707 527.9000244140625 L 704.7999877929688 535.7000122070312 L 752.2999877929688 537.7000122070312 L 748 526.0999755859375 Z" fill="#C1A68E" transform="matrix(0.5400754399168656, 0, 0, 0.5400754399168656, -119.10062662327394, 398.3206469002289)"/><path fill="#EBC19C" d="M726.7,569.8c-0.1,5.4-11.2,9.7-24.7,9.7c-13.6,0-24.6-4.3-24.7-9.7c-0.1-5.4,11-9.8,24.7-9.8&#10;&#9;&#9;&#9;C715.8,559.9,726.8,564.3,726.7,569.8z" transform="matrix(0.5400754399168656, 0, 0, 0.5400754399168656, -119.10062662327394, 398.3206469002289)"/><path fill="#C1A68E" d="M713.4,565.2c0,2.4-5,4.4-11.1,4.4s-11.1-2-11.1-4.4c0-2.4,4.9-4.4,11.1-4.4&#10;&#9;&#9;&#9;C708.5,560.8,713.5,562.7,713.4,565.2z" transform="matrix(0.5400754399168656, 0, 0, 0.5400754399168656, -119.10062662327394, 398.3206469002289)"/><path fill="#DFB28B" d="M749.2,515l5.9,33.1C766.8,527.3,749.2,515,749.2,515z" transform="matrix(0.5400754399168656, 0, 0, 0.5400754399168656, -119.10062662327394, 398.3206469002289)"/><path fill="#AC8457" d="M829.4,303.1l-34.9-12.4l-32.7-42.8l-99.2-18l-71,59.7l-11.7,68.8c3,10.5,15.9,197.9,15.9,197.9l67.7,70.4&#10;&#9;&#9;&#9;h73.7l68.1-70.4l11.9-148.7c0,0,1.4-34.1,2.4-46.2c0.1-1.1,0.3-2.4,0.5-3.7L829.4,303.1z M808.6,423.9c-2.2,22.2-7.8,74.2-12,89.5&#10;&#9;&#9;&#9;c-5.3,19-24.1,40-24.1,40s-2,17-7.6,26.9c-5.5,9.8-22.4,21.1-22.4,21.1c-2.6,10.5-12.2,13.2-16.6,13.2s-30.9-11.2-30.9-11.2&#10;&#9;&#9;&#9;s-14.8,6.8-23.6,8.1c-8.8,1.3-14.1-10.5-14.1-10.5s-12-3-25-15c-13.2-12.2-8.5-28-8.5-28s-17.8-21.7-21.9-35.8&#10;&#9;&#9;&#9;c-3-10.2-10.7-105-10.7-105c4.3-41.3,9.8-45,9.8-45c-3.9-26.1,1.2-47.1,22.5-62.6c21.6-15.7,90.1,12.8,90.1,12.8&#10;&#9;&#9;&#9;c24.6-14.1,66.4-6.7,66.4-6.7l5.6-14.3l-0.9,16.3c31.8-2.7,18.8,54.5,18.8,54.5C816.2,378.4,808.6,423.9,808.6,423.9z" transform="matrix(0.5400754399168656, 0, 0, 0.5400754399168656, -119.10062662327394, 398.3206469002289)"/><path fill="#8E572A" d="M601,372.2c-3.9-26.1,1.2-47.1,22.5-62.6c21.6-15.7,90.1,12.8,90.1,12.8c24.6-14.1,66.4-6.7,66.4-6.7&#10;&#9;&#9;&#9;l5.6-14.3l-0.9,16.3c31.8-2.7,18.8,54.5,18.8,54.5l16.2-12.4c2.7-19.1,26.5-64.5,26.5-64.5S831.9,262,807,271.1&#10;&#9;&#9;&#9;c0,0-23.9-116.1-69-116.1c-17.7,0-38.7,5.3-60.5,16.5c22-5,54.8-10.6,63.4-2c13.2,13.2,13.1,39.8,13.1,39.8s-47.6-26.6-90-30.2&#10;&#9;&#9;&#9;c-29,17.8-58,45.5-80.9,83.6c-25.2,5.1-42.9,38.7-42.9,38.7s34,37.1,39.6,57.1L601,372.2z" transform="matrix(0.5400754399168656, 0, 0, 0.5400754399168656, -119.10062662327394, 398.3206469002289)"/><path fill="#AC8457" d="M678.9,290.7c-67.6-23.6-35.9,79-35.9,79c-12.2-93.7,36.7-75.4,36.7-75.4L678.9,290.7z" transform="matrix(0.5400754399168656, 0, 0, 0.5400754399168656, -119.10062662327394, 398.3206469002289)"/><path fill="#543E36" d="M585,717.3c-0.2-0.6-0.3-1.1-0.4-1.7l-179.9,88.6c-20,9.9-34.6,28.4-39.5,50.3l-23.7,105.3H585V717.3z" transform="matrix(0.5400754399168656, 0, 0, 0.5400754399168656, -119.10062662327394, 398.3206469002289)"/><path fill="#543E36" d="M816.3,959.8H1062l-23.2-104.5c-5.5-24.7-21.6-45.4-43.9-56.5L816.3,710V959.8z" transform="matrix(0.5400754399168656, 0, 0, 0.5400754399168656, -119.10062662327394, 398.3206469002289)"/><path fill="#EBC19C" d="M627.3,449.7c28.7,12.7,41.6-8.1,41.6-8.1L627.3,449.7z" transform="matrix(0.5400754399168656, 0, 0, 0.5400754399168656, -119.10062662327394, 398.3206469002289)"/></svg>